<svg width="395" height="198" viewBox="0 0 395 198" fill="none" xmlns="http://www.w3.org/2000/svg">
<g filter="url(#filter0_d)">
<path d="M0 17C0 7.61116 7.61116 0 17 0H363C372.389 0 380 7.61116 380 17V183H0V17Z" fill="white"/>
</g>
<rect x="20" y="30" width="166" height="10" rx="5" fill="#717171" fill-opacity="0.3"/>
<rect x="20" y="45" width="122" height="10" rx="5" fill="#717171" fill-opacity="0.3"/>
<rect x="20" y="67" width="166" height="7" rx="3.5" fill="#717171" fill-opacity="0.12"/>
<rect x="20" y="78" width="166" height="7" rx="3.5" fill="#717171" fill-opacity="0.12"/>
<rect x="20" y="90" width="144" height="7" rx="3.5" fill="#717171" fill-opacity="0.12"/>
<rect x="20" y="112" width="96" height="32" rx="11" fill="#9FE67E"/>
<path d="M48.2074 127.111C47.9091 125.244 46.4474 124.153 44.6023 124.153C42.3437 124.153 40.6776 125.845 40.6776 128.636C40.6776 131.427 42.3352 133.119 44.6023 133.119C46.5199 133.119 47.9219 131.918 48.2074 130.192L46.8778 130.187C46.652 131.304 45.7145 131.918 44.6108 131.918C43.1151 131.918 41.9858 130.771 41.9858 128.636C41.9858 126.518 43.1108 125.355 44.6151 125.355C45.7273 125.355 46.6605 125.981 46.8778 127.111H48.2074Z" fill="white"/>
<path d="M56.644 128.636C56.644 125.845 54.9735 124.153 52.715 124.153C50.448 124.153 48.7818 125.845 48.7818 128.636C48.7818 131.423 50.448 133.119 52.715 133.119C54.9735 133.119 56.644 131.427 56.644 128.636ZM55.34 128.636C55.34 130.763 54.215 131.918 52.715 131.918C51.2107 131.918 50.09 130.763 50.09 128.636C50.09 126.51 51.2107 125.355 52.715 125.355C54.215 125.355 55.34 126.51 55.34 128.636Z" fill="white"/>
<path d="M57.5657 124.273V133H58.8185V126.68H58.8995L61.4733 132.987H62.5131L65.087 126.685H65.1679V133H66.4208V124.273H64.8228L62.0444 131.057H61.9421L59.1637 124.273H57.5657Z" fill="white"/>
<path d="M67.6152 133H68.932V129.932H70.7217C72.7459 129.932 73.7473 128.709 73.7473 127.098C73.7473 125.491 72.7544 124.273 70.726 124.273H67.6152V133ZM68.932 128.815V125.402H70.5854C71.8894 125.402 72.422 126.109 72.422 127.098C72.422 128.087 71.8894 128.815 70.6024 128.815H68.932Z" fill="white"/>
<path d="M74.571 133H75.8878V129.697H77.6775C77.7074 129.697 77.7329 129.697 77.7628 129.697L79.5355 133H81.0355L79.1008 129.467C80.1704 129.071 80.7031 128.18 80.7031 127.008C80.7031 125.402 79.7059 124.273 77.6818 124.273H74.571V133ZM75.8878 128.564V125.402H77.5412C78.8409 125.402 79.3778 126.02 79.3778 127.008C79.3778 127.993 78.8409 128.564 77.5582 128.564H75.8878Z" fill="white"/>
<path d="M82.3226 133L83.1237 130.69H86.5328L87.3297 133H88.7274L85.5868 124.273H84.0655L80.9249 133H82.3226ZM83.5072 129.582L84.7942 125.858H84.8624L86.1493 129.582H83.5072Z" fill="white"/>
<path d="M89.2677 133H90.5845V129.697H92.3742C92.4041 129.697 92.4296 129.697 92.4595 129.697L94.2322 133H95.7322L93.7975 129.467C94.8671 129.071 95.3998 128.18 95.3998 127.008C95.3998 125.402 94.4027 124.273 92.3785 124.273H89.2677V133ZM90.5845 128.564V125.402H92.2379C93.5376 125.402 94.0745 126.02 94.0745 127.008C94.0745 127.993 93.5376 128.564 92.2549 128.564H90.5845Z" fill="white"/>
<defs>
<filter id="filter0_d" x="0" y="0" width="395" height="198" filterUnits="userSpaceOnUse" color-interpolation-filters="sRGB">
<feFlood flood-opacity="0" result="BackgroundImageFix"/>
<feColorMatrix in="SourceAlpha" type="matrix" values="0 0 0 0 0 0 0 0 0 0 0 0 0 0 0 0 0 0 127 0"/>
<feOffset dx="15" dy="15"/>
<feColorMatrix type="matrix" values="0 0 0 0 0.941667 0 0 0 0 0.941667 0 0 0 0 0.941667 0 0 0 1 0"/>
<feBlend mode="normal" in2="BackgroundImageFix" result="effect1_dropShadow"/>
<feBlend mode="normal" in="SourceGraphic" in2="effect1_dropShadow" result="shape"/>
</filter>
</defs>
</svg>
